Coordinates
version=1
nRows=24
nColumns=22
inDegrees=yes

Units are S.I. units (second, meters, Newtons, ...)
If the header above contains a line with 'inDegrees', this indicates whether rotational values are in degrees (yes) or radians (no).

endheader
time	pelvis_tilt	pelvis_list	pelvis_rotation	pelvis_tx	pelvis_ty	pelvis_tz	hip_flexion_r	hip_adduction_r	hip_rotation_r	knee_angle_r	ankle_angle_r	subtalar_angle_r	hip_flexion_l	hip_adduction_l	hip_rotation_l	knee_angle_l	ankle_angle_l	subtalar_angle_l	lumbar_extension	lumbar_bending	lumbar_rotation
      2.75000000	      0.35613092	      3.93054021	    -39.21134114	     -0.44208045	      1.00574483	     -0.23506295	     11.20188006	     -8.28335611	     -2.78753456	    -57.19171848	      4.01715448	     11.30891985	     10.95718168	      2.07702339	     -9.57351075	    -16.86984520	      7.45794797	     -1.84534349	     -1.80153419	     -7.13414056	      0.18877736
      2.76000000	      0.39940278	      3.78799475	    -39.44761119	     -0.43473069	      1.00649314	     -0.23176174	     12.53444495	     -8.24792839	     -3.05790354	    -57.97645757	      4.83069864	     10.67438950	     10.13783023	      2.12644350	     -9.81865684	    -16.52125767	      7.79380118	     -1.81469479	     -2.06708498	     -6.93569446	     -0.20585635
      2.77000000	      0.42987954	      3.62691002	    -39.62457656	     -0.42745601	      1.00721469	     -0.22850486	     13.81696116	     -8.15920788	     -3.39650768	    -58.54440567	      5.58291628	     10.10530365	      9.31620314	      2.16194419	    -10.01375656	    -16.15408533	      8.10657583	     -1.76047365	     -2.33510232	     -6.71255208	     -0.62480143
      2.78000000	      0.45137943	      3.45856542	    -39.73939021	     -0.42023749	      1.00788703	     -0.22528132	     15.05005973	     -8.03919183	     -3.81181478	    -58.90238227	      6.27810084	      9.61561165	      8.50162596	      2.19132343	    -10.16616266	    -15.78068465	      8.39579421	     -1.68878039	     -2.59951920	     -6.47780022	     -1.06796355
      2.79000000	      0.46646057	      3.29157696	    -39.79749282	     -0.41308969	      1.00848659	     -0.22207515	     16.23915187	     -7.89827293	     -4.29116712	    -59.05986556	      6.92655561	      9.18467066	      7.70272253	      2.21946155	    -10.27255463	    -15.41208471	      8.66808375	     -1.60858718	     -2.85665597	     -6.24360492	     -1.54088688
      2.80000000	      0.47081077	      3.12884708	    -39.80014687	     -0.40594456	      1.00901527	     -0.21885728	     17.37753393	     -7.75680852	     -4.86794218	    -59.00722216	      7.49642557	      8.70596107	      6.90787902	      2.24877203	    -10.31923593	    -15.02235355	      8.92380166	     -1.50159044	     -3.09050103	     -6.00903175	     -2.00366193
      2.81000000	      0.47497072	      2.97602903	    -39.75090024	     -0.39883017	      1.00945280	     -0.21563901	     18.46524839	     -7.62319618	     -5.51052663	    -58.76171482	      8.02912871	      8.27018314	      6.13334341	      2.28394412	    -10.32898348	    -14.65031140	      9.17283173	     -1.40050385	     -3.31375223	     -5.78203698	     -2.50076492
      2.82000000	      0.47780755	      2.83184674	    -39.66053583	     -0.39173969	      1.00979629	     -0.21238137	     19.50050342	     -7.49945750	     -6.21295127	    -58.32808832	      8.53140677	      7.87877597	      5.37152731	      2.32151383	    -10.30251057	    -14.28631113	      9.41942904	     -1.30893390	     -3.52244824	     -5.56370183	     -3.02201496
      2.83000000	      0.47698788	      2.68960729	    -39.54485548	     -0.38464669	      1.01005628	     -0.20904917	     20.47457655	     -7.38341439	     -6.97356915	    -57.70484748	      8.98924371	      7.50843925	      4.60436661	      2.35529505	    -10.23616155	    -13.90586886	      9.66179162	     -1.22153756	     -3.71274184	     -5.34720479	     -3.52323762
      2.84000000	      0.47683580	      2.54834116	    -39.42110821	     -0.37756697	      1.01023294	     -0.20562734	     21.38415746	     -7.26892118	     -7.76265697	    -56.89874921	      9.41871929	      7.18141020	      3.82639422	      2.38646704	    -10.14383679	    -13.50830176	      9.90090372	     -1.14811929	     -3.88986606	     -5.13200588	     -4.00394623
      2.85000000	      0.47997132	      2.40731511	    -39.27515773	     -0.37050222	      1.01031999	     -0.20212315	     22.22341996	     -7.17090251	     -8.60646735	    -55.92347949	      9.82403780	      6.94284704	      3.04573798	      2.41181028	    -10.04310851	    -13.11219048	     10.13754453	     -1.10251169	     -4.06130521	     -4.92448604	     -4.47675046
      2.86000000	      0.48180485	      2.27649255	    -39.11605543	     -0.36346479	      1.01029520	     -0.19855273	     23.00538400	     -7.08930736	     -9.48389222	    -54.78994940	     10.21120155	      6.80599327	      2.27596574	      2.43781940	     -9.92884270	    -12.72377923	     10.37858523	     -1.08632554	     -4.21688185	     -4.72228578	     -4.95309712
      2.87000000	      0.49464011	      2.13362613	    -38.96400947	     -0.35645797	      1.01020385	     -0.19487156	     23.70058651	     -7.00447010	    -10.38149126	    -53.49624892	     10.55669508	      6.68662957	      1.47199094	      2.45586050	     -9.80241357	    -12.31029932	     10.61169810	     -1.08622787	     -4.38046176	     -4.51904923	     -5.39008296
      2.88000000	      0.51350419	      1.99494979	    -38.80733127	     -0.34951380	      1.01001146	     -0.19108818	     24.32871097	     -6.92934987	    -11.31040285	    -52.06267421	     10.86147913	      6.60286227	      0.66307989	      2.47030623	     -9.68196973	    -11.89426376	     10.84635084	     -1.09847705	     -4.54308842	     -4.33238933	     -5.80330733
      2.89000000	      0.54088715	      1.86030725	    -38.66238690	     -0.34262772	      1.00972086	     -0.18719162	     24.88938483	     -6.85559757	    -12.24992306	    -50.49441356	     11.12242391	      6.53220386	     -0.16222505	      2.48509281	     -9.57117209	    -11.46068847	     11.08236798	     -1.11248741	     -4.70363173	     -4.15779226	     -6.18253800
      2.90000000	      0.57712259	      1.73633720	    -38.53107362	     -0.33583336	      1.00931993	     -0.18316603	     25.39258753	     -6.78130198	    -13.19474344	    -48.80653146	     11.32338235	      6.46650868	     -0.99840901	      2.50269445	     -9.48580563	    -11.00794684	     11.32455770	     -1.11802442	     -4.86183529	     -4.00932809	     -6.52396485
      2.91000000	      0.61865105	      1.62682457	    -38.41732656	     -0.32910847	      1.00879666	     -0.17901447	     25.84263390	     -6.70469314	    -14.14416921	    -47.00454173	     11.47374125	      6.40544308	     -1.83862078	      2.52601562	     -9.42037641	    -10.54311792	     11.57564754	     -1.10568639	     -5.00873113	     -3.88166217	     -6.82340939
      2.92000000	      0.65873377	      1.54289272	    -38.31784106	     -0.32248664	      1.00812525	     -0.17473739	     26.25882272	     -6.62260377	    -15.08577936	    -45.10164329	     11.56817192	      6.36642171	     -2.66195658	      2.55637187	     -9.38610059	    -10.07652265	     11.83881638	     -1.07352831	     -5.13550798	     -3.78640801	     -7.09100493
      2.93000000	      0.70473392	      1.47762209	    -38.23864934	     -0.31596738	      1.00731801	     -0.17032845	     26.63276958	     -6.52892597	    -16.01278192	    -43.10667235	     11.60009133	      6.35526472	     -3.47881329	      2.59438049	     -9.38287139	     -9.61072888	     12.11600824	     -1.01917338	     -5.25482491	     -3.72316543	     -7.30905672
      2.94000000	      0.74264865	      1.44139351	    -38.17976338	     -0.30955317	      1.00634605	     -0.16578193	     26.98490816	     -6.41415674	    -16.90439201	    -41.02896654	     11.58947401	      6.39886837	     -4.26493832	      2.64013053	     -9.39723782	     -9.15845846	     12.40487432	     -0.94882635	     -5.34487032	     -3.68942462	     -7.48874679
      2.95000000	      0.77945901	      1.42839558	    -38.13464287	     -0.30323993	      1.00522233	     -0.16111376	     27.30871948	     -6.27887522	    -17.75182264	    -38.88030302	     11.53584621	      6.51399555	     -5.02558361	      2.69316910	     -9.43571525	     -8.72606472	     12.71026418	     -0.86634139	     -5.42053379	     -3.68627800	     -7.63056442
      2.96000000	      0.81814426	      1.43314856	    -38.09926710	     -0.29702903	      1.00395854	     -0.15632791	     27.60054362	     -6.11991694	    -18.54520994	    -36.67527303	     11.45673042	      6.71606672	     -5.75996260	      2.75079405	     -9.49055778	     -8.32644730	     13.03292482	     -0.77344549	     -5.48999687	     -3.70991364	     -7.73669864
      2.97000000	      0.85771056	      1.45392187	    -38.07120099	     -0.29089097	      1.00256054	     -0.15143184	     27.86193447	     -5.93624134	    -19.26374783	    -34.42693297	     11.37108613	      7.00865041	     -6.46402764	      2.81182743	     -9.55325714	     -7.97152008	     13.37141278	     -0.67410595	     -5.55057611	     -3.75191699	     -7.81793277
      2.98000000	      0.91784801	      1.48761702	    -38.04949697	     -0.28479901	      1.00105506	     -0.14644450	     28.08302601	     -5.74837248	    -19.90417257	    -32.16804974	     11.31159822	      7.40622864	     -7.16008029	      2.88979082	     -9.62484473	     -7.65339305	     13.73221510	     -0.54980533	     -5.62454169	     -3.82044675	     -7.85793469
